<?xml version="1.0" encoding="utf-8"?>
<!-- Generator: Adobe Illustrator 22.0.1, SVG Export Plug-In . SVG Version: 6.00 Build 0)  -->
<svg version="1.1" id="Layer_1" xmlns="http://www.w3.org/2000/svg" xmlns:xlink="http://www.w3.org/1999/xlink" x="0px" y="0px"
	 viewBox="0 0 58.3 35" style="enable-background:new 0 0 58.3 35;" xml:space="preserve">
<style type="text/css">
	.st0{fill:#FFFFFF;}
</style>
<g>
	<g>
		<path class="st0" d="M2.9,6c17.4,0,34.8,0,52.2,0c3.9,0,3.9-6,0-6C37.7,0,20.3,0,2.9,0C-1,0-1,6,2.9,6L2.9,6z"/>
	</g>
</g>
<g>
	<g>
		<path class="st0" d="M3.2,20.5c17.4,0,34.8,0,52.2,0c3.9,0,3.9-6,0-6c-17.4,0-34.8,0-52.2,0C-0.6,14.5-0.6,20.5,3.2,20.5L3.2,20.5
			z"/>
	</g>
</g>
<g>
	<g>
		<path class="st0" d="M3.2,35c17.4,0,34.8,0,52.2,0c3.9,0,3.9-6,0-6C38,29,20.6,29,3.2,29C-0.6,29-0.6,35,3.2,35L3.2,35z"/>
	</g>
</g>
</svg>
