<svg xmlns="http://www.w3.org/2000/svg" viewBox="0 0 27.42 27.79">
  <defs>
    <style>
      .cls-1, .cls-2 {
        fill: #025249;
      }

      .cls-2 {
        opacity: 0.2;
      }
    </style>
  </defs>
  <title>Asset 9</title>
  <g id="Layer_2" data-name="Layer 2">
    <g id="Layer_1-2" data-name="Layer 1">
      <g>
        <g>
          <path class="cls-1" d="M22.3,8a5.05,5.05,0,0,0-2.56.69l-6-3.77A3.47,3.47,0,0,0,14,3.58a3.58,3.58,0,1,0-3.58,3.58A3.53,3.53,0,0,0,13.07,6l5.58,3.52a5.08,5.08,0,0,0-1.47,3.58,5.14,5.14,0,0,0,.41,2L11.3,18.77a6,6,0,1,0,.79,3A6.12,6.12,0,0,0,11.82,20l6.43-3.74A5.12,5.12,0,1,0,22.3,8ZM10.45,5.85a2.27,2.27,0,1,1,2.27-2.27A2.27,2.27,0,0,1,10.45,5.85ZM6,26.49a4.74,4.74,0,1,1,4.33-6.66.56.56,0,0,0,.08.2l0,0A4.74,4.74,0,0,1,6,26.49ZM22.3,16.92A3.81,3.81,0,0,1,20.06,10a.47.47,0,0,0,.12-.09,3.81,3.81,0,1,1,2.12,7Z"/>
          <path class="cls-1" d="M10.81,3.18h-.7a.66.66,0,0,0-.66.67v.42a.36.36,0,0,0,.37.37h1.26a.38.38,0,0,0,.38-.35h0V3.86A.67.67,0,0,0,10.81,3.18Z"/>
          <path class="cls-1" d="M10.45,3a.46.46,0,1,0,0-.91.46.46,0,0,0,0,.91Z"/>
          <path class="cls-1" d="M7,21h-2a1.76,1.76,0,0,0-1.76,1.76V24a.86.86,0,0,0,.86.87H7.88A.86.86,0,0,0,8.75,24V22.72A1.76,1.76,0,0,0,7,21Z"/>
          <path class="cls-1" d="M6,20.22A1.19,1.19,0,1,0,4.86,19,1.18,1.18,0,0,0,6,20.22Z"/>
          <path class="cls-1" d="M23,12.45H21.55a1.28,1.28,0,0,0-.91.38h0a1.31,1.31,0,0,0-.38.92h0v1a.63.63,0,0,0,.63.63H23.7a.63.63,0,0,0,.63-.63v-1h0A1.32,1.32,0,0,0,23,12.45Z"/>
          <path class="cls-1" d="M22.3,11.94a.9.9,0,1,0-.89-.9A.89.89,0,0,0,22.3,11.94Z"/>
        </g>
        <circle class="cls-2" cx="6.37" cy="21.71" r="5.08"/>
        <circle class="cls-2" cx="22.34" cy="13.28" r="4.51"/>
        <circle class="cls-2" cx="10.34" cy="3.69" r="2.6"/>
      </g>
    </g>
  </g>
</svg>
