<svg xmlns="http://www.w3.org/2000/svg" viewBox="0 0 26.15 24.41">
  <defs>
    <style>
      .cls-1, .cls-2 {
        fill: #025249;
        stroke: #035249;
        stroke-miterlimit: 10;
        stroke-width: 0.1px;
      }

      .cls-2 {
        opacity: 0.29;
      }
    </style>
  </defs>
  <title>Asset 8</title>
  <g id="Layer_2" data-name="Layer 2">
    <g id="Layer_1-2" data-name="Layer 1">
      <g>
        <g>
          <path class="cls-1" d="M18.39,21.77a.44.44,0,0,0-.53.32l-.43,1.73a.43.43,0,0,0,.32.53h.1a.43.43,0,0,0,.42-.33l.44-1.73a.45.45,0,0,0-.32-.53Z"/>
          <path class="cls-1" d="M13.08,13.07a.45.45,0,0,0,.16,0l4.78-2a.44.44,0,0,0-.34-.81l-4.6,1.91L.92,7.14V7a.44.44,0,0,0-.44-.44A.44.44,0,0,0,.05,7v.43a.43.43,0,0,0,.27.4L12.91,13a.47.47,0,0,0,.17,0Z"/>
          <path class="cls-1" d="M18.24,17.52a.43.43,0,0,0-.58-.19,10.2,10.2,0,0,1-4.15.94V14.38a.44.44,0,1,0-.87,0v3.89c-5.39-.17-7.13-3.44-7.38-4V11.34a.44.44,0,0,0-.43-.44.44.44,0,0,0-.44.44v3a.45.45,0,0,0,0,.16c.08.19,1.93,4.61,8.66,4.61a11.07,11.07,0,0,0,5-1,.42.42,0,0,0,.2-.58Z"/>
          <path class="cls-1" d="M19.59,22.19a.44.44,0,0,0-.44.44v1.3a.44.44,0,0,0,.44.43.43.43,0,0,0,.43-.43v-1.3a.44.44,0,0,0-.43-.44Z"/>
          <path class="cls-1" d="M25.67,6.56a.44.44,0,0,0-.44.44v.14L20,9.28V8.5l5.81-2.4a.44.44,0,0,0,0-.81L13.24.08a.47.47,0,0,0-.33,0L.32,5.29a.44.44,0,0,0,0,.81l12.59,5.21a.47.47,0,0,0,.17,0,.45.45,0,0,0,.16,0l4.55-1.89A.43.43,0,0,0,18,8.85a.44.44,0,0,0-.57-.23l-4.38,1.81L1.62,5.69,13.08,1,24.53,5.69l-5,2.07L14.77,6a.86.86,0,0,0,0-.28c0-.73-.76-1.3-1.73-1.3s-1.74.57-1.74,1.3S12.1,7,13.08,7a2.1,2.1,0,0,0,1.12-.31l4.95,1.85V19.23a1.31,1.31,0,1,0,.87,0V16.77a5.1,5.1,0,0,0,1.71-2.25.35.35,0,0,0,0-.14v-3a.44.44,0,0,0-.44-.44.44.44,0,0,0-.43.44v3A4.45,4.45,0,0,1,20,15.61V10.22l5.81-2.39a.43.43,0,0,0,.27-.4V7a.44.44,0,0,0-.43-.44ZM13.08,6.13c-.53,0-.87-.26-.87-.44s.34-.43.87-.43.86.26.86.43-.33.44-.86.44Zm6.51,14.76a.44.44,0,0,1-.44-.43.44.44,0,0,1,.44-.44.44.44,0,0,1,.43.44.43.43,0,0,1-.43.43Z"/>
          <path class="cls-1" d="M21.31,22.09a.43.43,0,0,0-.52-.32.44.44,0,0,0-.32.53L20.9,24a.44.44,0,0,0,.42.33h.11a.45.45,0,0,0,.32-.53Z"/>
        </g>
        <g>
          <ellipse class="cls-1" cx="13.09" cy="5.71" rx="0.81" ry="0.69"/>
          <polygon class="cls-2" points="25.28 5.65 13.07 10.98 0.37 5.46 13.11 0.27 25.28 5.65"/>
          <path class="cls-1" d="M19.09,20.49a.66.66,0,1,1,.66.66A.66.66,0,0,1,19.09,20.49Z"/>
        </g>
      </g>
    </g>
  </g>
</svg>
