<svg xmlns="http://www.w3.org/2000/svg" viewBox="0 0 17.47 18.49">
  <defs>
    <style>
      .cls-1, .cls-2 {
        fill: #ffffff;
      }

      .cls-2 {
        opacity: 0.2;
      }
    </style>
  </defs>
  <title>Asset 10</title>
  <g id="Layer_2" data-name="Layer 2">
    <g id="Layer_1-2" data-name="Layer 1">
      <g>
        <path class="cls-1" d="M17.47,15.85a3.07,3.07,0,0,0-2.27-3h0l-2.94-.79h0a.9.9,0,0,0-1,.49h0v.05h0L9.69,17.05l-.38-2h0a.44.44,0,0,1,.08-.38h0l.29-.33h0A.52.52,0,0,0,9.8,14a.44.44,0,0,0-.18-.33h0L9,13.21H9a.47.47,0,0,0-.59,0h0l-.59.47h0a.49.49,0,0,0-.06.68h0l.3.33h0a.39.39,0,0,1,.08.38h0l-.36,2.08L6.28,12.64h0v-.05h0a.89.89,0,0,0-1-.49h0l-3,.79h0a3.07,3.07,0,0,0-2.28,3V17.6a.89.89,0,0,0,.89.89H16.57a.89.89,0,0,0,.9-.89V15.85Zm-.92,0v1.73H10.48L12,13l2.93.79h0A2.14,2.14,0,0,1,16.55,15.85Zm-14-2.07h0L5.44,13,7,17.58H.92V15.85A2.14,2.14,0,0,1,2.52,13.78Z"/>
        <g>
          <path class="cls-1" d="M3.89,7.09h0A3.51,3.51,0,0,0,4.84,9h0a.4.4,0,0,1,.1.15h0a4.79,4.79,0,0,0,3.22,3h0a2.22,2.22,0,0,0,.57.07,2.12,2.12,0,0,0,.57-.07h0a4.77,4.77,0,0,0,3.23-3h0L12.62,9h0a3.41,3.41,0,0,0,1-1.9,2.05,2.05,0,0,0-.25-1.41h0a.4.4,0,0,1,0-.27h0a4.83,4.83,0,0,0-2.62-5h0a4.53,4.53,0,0,0-3.84,0h0a4.84,4.84,0,0,0-2.61,5,.4.4,0,0,1,0,.26h0a2.24,2.24,0,0,0-.26,1.41ZM7.22,1.26a3.52,3.52,0,0,1,3,0,3.91,3.91,0,0,1,2.11,4h0a1.31,1.31,0,0,0,.16.85h0a1.11,1.11,0,0,1,.13.8h0A2.52,2.52,0,0,1,12,8.35h0a1.35,1.35,0,0,0-.3.47h0a3.87,3.87,0,0,1-2.6,2.38,1.27,1.27,0,0,1-.67,0A3.84,3.84,0,0,1,5.8,8.82h0a1.35,1.35,0,0,0-.3-.47h0A2.53,2.53,0,0,1,4.8,7h0A1.14,1.14,0,0,1,5,6.14H5a1.37,1.37,0,0,0,.16-.84h0A3.92,3.92,0,0,1,7.22,1.26Z"/>
          <path class="cls-2" d="M4.05,7.06h0A3.27,3.27,0,0,0,5,8.89H5A.46.46,0,0,1,5.06,9h0A4.61,4.61,0,0,0,8.18,11.9h0a2,2,0,0,0,1.11,0h0A4.61,4.61,0,0,0,12.41,9h0a.28.28,0,0,1,.09-.14h0a3.26,3.26,0,0,0,.91-1.84,2,2,0,0,0-.23-1.37h0a.42.42,0,0,1,0-.25h0A4.68,4.68,0,0,0,10.6.62h0a4.31,4.31,0,0,0-3.71,0h0A4.68,4.68,0,0,0,4.35,5.44a.42.42,0,0,1,0,.25h0a2,2,0,0,0-.25,1.36Zm7.53,1.68h0m.67-3.43h0m-7.18.82h0a1.26,1.26,0,0,0,.15-.81h0m-.3,1.6h0m1,1.81h0"/>
        </g>
      </g>
    </g>
  </g>
</svg>
