<svg xmlns="http://www.w3.org/2000/svg" viewBox="0 0 24.86 22.45">
  <defs>
    <style>
      .cls-1 {
        fill: none;
        stroke: #035249;
        stroke-linejoin: round;
        stroke-width: 0.7px;
      }

      .cls-2 {
        fill: #035249;
        opacity: 0.2;
      }
    </style>
  </defs>
  <title>Asset 6</title>
  <g id="Layer_2" data-name="Layer 2">
    <g id="Layer_1-2" data-name="Layer 1">
      <g>
        <g>
          <polyline class="cls-1" points="9.66 20.65 14.48 20.65 14.48 22.1 3.65 22.1 3.65 20.65 8.46 20.65"/>
          <path class="cls-1" d="M2.75,8.39c-.54,0-1,0-1,0"/>
          <path class="cls-1" d="M13.43,8.25s.84,0,.84.74a.68.68,0,0,1-.78.69h-.33"/>
          <path class="cls-1" d="M13.43,8.25h2a.83.83,0,0,0,.11-1.65"/>
          <path class="cls-1" d="M15.5,6.6h0c.21,0,1.26.05,1.26-.87s-1.18-.83-1.29-.82"/>
          <path class="cls-1" d="M15.5,4.91h0a.79.79,0,0,0,.64-.83c0-.67-.76-.81-.76-.81L9.13,3a1.85,1.85,0,0,0,.1-.53C11.35,1.67,10.41.35,10.41.35L7,1.68a2.25,2.25,0,0,0-.84.53L4.83,3.47a1.35,1.35,0,0,1-1.06.41h-2"/>
          <path class="cls-1" d="M9.13,3a2.56,2.56,0,0,1-2,1.64"/>
          <line class="cls-1" x1="15.5" y1="4.91" x2="10.69" y2="4.73"/>
          <line class="cls-1" x1="15.5" y1="6.6" x2="10.62" y2="6.6"/>
          <line class="cls-1" x1="13.49" y1="8.26" x2="10.33" y2="8.26"/>
          <path class="cls-1" d="M9.66,15.48v5.17a.6.6,0,0,1-.6.6.6.6,0,0,1-.6-.6V15.53"/>
          <polyline class="cls-1" points="8.46 8.86 8.46 5.72 9.66 5.72 9.66 8.91"/>
          <g>
            <path class="cls-1" d="M.05,14.2s1.39-.19,1.78.29a4.59,4.59,0,0,0,2.7,1.17l3.93-.13,1.2,0,.87,0s.78.07.78-.68S10.5,14,10.47,14"/>
            <path class="cls-1" d="M10.47,14h2a.83.83,0,0,0,.11-1.65"/>
            <path class="cls-1" d="M12.53,12.38h0c.21,0,1.26,0,1.26-.87s-1.18-.83-1.29-.82"/>
            <path class="cls-1" d="M.05,9.66H.81a1.35,1.35,0,0,0,1.06-.41l.88-.86.4-.4A2.25,2.25,0,0,1,4,7.46L7.45,6.13S8.39,7.45,6.27,8.2a1.78,1.78,0,0,1-.11.54l2.3.12,1.2.05,2.76.14a1,1,0,0,1,.74.64.91.91,0,0,1,0,.17.79.79,0,0,1-.63.83h0"/>
            <polyline class="cls-1" points="7.73 10.51 8.46 10.54 9.66 10.58 12.54 10.69"/>
            <line class="cls-1" x1="12.54" y1="12.38" x2="7.66" y2="12.38"/>
            <line class="cls-1" x1="10.53" y1="14.04" x2="7.37" y2="14.04"/>
          </g>
          <path class="cls-1" d="M7.58,18.33c-2.09,0-3.79-.4-3.79-.9,0-.23.35-.44.93-.6"/>
          <path class="cls-1" d="M9.05,19.64A18.77,18.77,0,0,1,3.59,19c-.8-.26-1.27-.59-1.27-.94"/>
          <polygon class="cls-1" points="12.18 17.5 12.04 16.6 12.68 17.47 13.94 16.75 13.31 18.13 14.19 18.77 12.99 18.62 12.68 19.81 12.22 18.48 10.88 18.77 12.01 17.99 11.18 17.48 12.18 17.5"/>
          <polygon class="cls-1" points="16.44 18.13 16.3 17.23 16.93 18.1 18.2 17.38 17.57 18.77 18.45 19.4 17.25 19.25 16.93 20.44 16.48 19.11 15.14 19.4 16.27 18.63 15.44 18.11 16.44 18.13"/>
          <polygon class="cls-1" points="15.14 14.94 15 14.05 15.64 14.92 16.9 14.19 16.27 15.58 17.15 16.22 15.95 16.07 15.64 17.26 15.18 15.93 13.84 16.22 14.97 15.44 14.14 14.93 15.14 14.94"/>
          <g>
            <path class="cls-1" d="M17.53,14.05V13a2.19,2.19,0,0,1,2.19-2.19,2.12,2.12,0,0,1,.94.21,1.81,1.81,0,0,1-.43-1.17A1.83,1.83,0,0,1,22.06,8"/>
            <path class="cls-1" d="M18.24,14.05v-.76a.74.74,0,0,1,.74-.74h2.76a1,1,0,0,0,1.05-1.05,1.07,1.07,0,0,0-.3-.73,1.84,1.84,0,0,0,.41.05,1.62,1.62,0,0,0,0-3.23"/>
          </g>
        </g>
        <polygon class="cls-2" points="0.2 9.68 0.3 13.96 1.8 14.26 2.56 14.85 3.58 15.32 5.34 15.31 6.92 15.46 11 15.31 11.02 14.35 11.44 14.06 12.21 13.99 13.08 13.57 13.1 12.93 13.16 12.56 13.49 12.04 13.66 11.31 13.35 10.79 13.21 10.74 12.88 10.15 13.14 9.67 12.86 9.38 11.75 9.24 10.22 8.93 8.21 8.81 7.71 8.62 8.21 8.56 8.21 7.96 8.27 7.18 8.42 6.81 8.42 6.28 8.64 5.81 9.17 5.49 9.49 5.43 9.74 5.62 9.99 5.84 9.96 7.24 9.96 7.9 9.96 8.24 9.89 8.72 10.58 8.81 11.78 8.92 13.09 9.32 13.71 9.54 14.02 9.14 14.09 8.36 14.79 8.18 15.44 8.15 16.36 7.62 15.89 6.53 16.55 6.15 16.64 5.15 15.67 4.78 16.11 3.99 15.67 3.4 14.92 3.21 13.89 3.21 12.49 3.21 11.24 3.15 9.36 3.34 9.39 2.87 8.89 2.21 9.24 2.06 9.83 1.96 10.21 1.34 10.39 0.84 10.14 0.53 6.46 2.15 4.67 3.9 2.96 3.99 1.96 3.79 2.3 8.84 0.2 9.68"/>
      </g>
    </g>
  </g>
</svg>
