<svg id="Layer_1" data-name="Layer 1" xmlns="http://www.w3.org/2000/svg" viewBox="0 0 420.64 269.13">
  <defs>
    <style>
      .cls-1 {
        fill: #252525;
      }

      .cls-2 {
        fill: #38c6ae;
      }
    </style>
  </defs>
  <title>joshua-zeilmann-logo</title>
  <path class="cls-1" d="M311.27,192.68H419.5v32.53h-8.59q-77.34,0-154.68-.11c-3.25,0-8.35.69-9.76-2.36s2.43-6.56,4.55-9.08q30-35.65,60.32-71,35.19-41,70.66-81.77c5.16-5.92,7.9-12.12,4.42-19.54-3.33-7.11-9.79-9.09-17.19-9.09-53.76,0-107.52-.24-161.28.13-31.91.22-51.21,20.28-51.27,52.1-.05,28.09.06,56.19,0,84.28-.09,29-23.38,54.12-52.13,56.35C75,227.41,47.84,206.45,43.14,177.68c-.43-2.68-.3-5.44-.5-9.47,9.72,0,28.19.21,28.19.21s3.79,2.7,4.38,4.56c4.45,14.27,15.25,21.62,29.22,19.5,11.63-1.76,19.78-12,19.86-25.67.16-27.8.58-55.61,0-83.4C123.21,34,163.34-1,207.54,0c55.66,1.3,111.38.2,167.07.47C393.11.58,406.7,9.93,415,26.12c7.91,15.51,7.76,31.71-1.73,46.44C407.17,82,399,90.09,391.7,98.68,365.48,129.38,339.21,160,311.27,192.68Z"/>
  <path class="cls-2" d="M285.28,106.94l25.22-30c-1.82-.51-3-1.13-4.16-1.14-29.49-.2-59-.47-88.48-.44-15,0-18.29,3.59-18.36,18.62,0,3.86-.18,7.73,0,11.58l-.1,63.21c.43,33.73-13.56,60.75-40.45,80.31-33.56,24.4-70.06,26.08-106.73,7.5C19.06,239.76-2,203.47.15,168.85H30.4c1.47,19.13,7.8,35.75,21.9,48.69,21,19.26,45.32,25,71.81,14.65,26.26-10.24,40.94-30.5,44.64-58.66l0-59.86c-.16-12.68-.45-25.38.08-38,.7-17,16.81-31.48,35.38-31.56q82.28-.39,164.56-.12c2.43,0,6.25,0,7.28,2.35s-1.62,5.19-3.25,7.07C352.09,77.3,331.08,101,310.37,125l-32.58,39c-11.8,14.2-23.93,28.13-36.06,42.06-5.43,6.23-10.34,12.47-6,21.38,4.16,8.54,11.74,9.78,20.17,9.75q76.92-.27,153.83-.36c3,0,6,0,9.86,0v31c-2.42.21-4.77.58-7.13.58-54.59-.05-109.18,0-163.77-.28-19.64-.09-34-10-41.62-27.47-7.54-17.18-6.17-34.44,6.53-49.56,7.79-9.27,15.65-18.49,23-27.17Z"/>
</svg>
